<mxfile host="www.draw.io" modified="2020-01-06T03:19:17.181Z" agent="Mozilla/5.0 (Macintosh; Intel Mac OS X 10_15_1) AppleWebKit/537.36 (KHTML, like Gecko) Chrome/79.0.3945.88 Safari/537.36" etag="bxoF_ojPlg7o5T0qY9JU" version="12.4.8" type="github">
  <diagram id="6aOk4Q3Ruuy11X7ZW--9" name="Page-1">
    <mxGraphModel dx="855" dy="656" grid="1" gridSize="10" guides="1" tooltips="1" connect="1" arrows="1" fold="1" page="1" pageScale="1" pageWidth="850" pageHeight="1100" math="0" shadow="0">
      <root>
        <mxCell id="0"/>
        <mxCell id="1" parent="0"/>
        <mxCell id="gKgvuzPT2wpfFBeMITmC-4" value="" style="rounded=0;whiteSpace=wrap;html=1;" vertex="1" parent="1">
          <mxGeometry x="70" y="110" width="210" height="340" as="geometry"/>
        </mxCell>
        <mxCell id="txx5UAHTg3xrQf5eGGyM-2" value="Person Service 1" style="rounded=0;whiteSpace=wrap;html=1;" parent="1" vertex="1">
          <mxGeometry x="130" y="170" width="80" height="60" as="geometry"/>
        </mxCell>
        <mxCell id="gKgvuzPT2wpfFBeMITmC-1" value="Person Shard 1" style="shape=cylinder;whiteSpace=wrap;html=1;boundedLbl=1;backgroundOutline=1;" vertex="1" parent="1">
          <mxGeometry x="90" y="300" width="60" height="80" as="geometry"/>
        </mxCell>
        <mxCell id="gKgvuzPT2wpfFBeMITmC-5" value="DC 1" style="text;html=1;align=center;verticalAlign=middle;resizable=0;points=[];autosize=1;" vertex="1" parent="1">
          <mxGeometry x="70" y="80" width="40" height="20" as="geometry"/>
        </mxCell>
        <mxCell id="gKgvuzPT2wpfFBeMITmC-6" value="Metadata Master" style="shape=cylinder;whiteSpace=wrap;html=1;boundedLbl=1;backgroundOutline=1;" vertex="1" parent="1">
          <mxGeometry x="190" y="300" width="60" height="80" as="geometry"/>
        </mxCell>
        <mxCell id="gKgvuzPT2wpfFBeMITmC-7" value="" style="rounded=0;whiteSpace=wrap;html=1;" vertex="1" parent="1">
          <mxGeometry x="380" y="110" width="210" height="340" as="geometry"/>
        </mxCell>
        <mxCell id="gKgvuzPT2wpfFBeMITmC-8" value="Person Service 2" style="rounded=0;whiteSpace=wrap;html=1;" vertex="1" parent="1">
          <mxGeometry x="440" y="170" width="80" height="60" as="geometry"/>
        </mxCell>
        <mxCell id="gKgvuzPT2wpfFBeMITmC-9" value="Person Shard 2" style="shape=cylinder;whiteSpace=wrap;html=1;boundedLbl=1;backgroundOutline=1;" vertex="1" parent="1">
          <mxGeometry x="400" y="300" width="60" height="80" as="geometry"/>
        </mxCell>
        <mxCell id="gKgvuzPT2wpfFBeMITmC-10" value="DC 2" style="text;html=1;align=center;verticalAlign=middle;resizable=0;points=[];autosize=1;" vertex="1" parent="1">
          <mxGeometry x="380" y="80" width="40" height="20" as="geometry"/>
        </mxCell>
        <mxCell id="gKgvuzPT2wpfFBeMITmC-11" value="Metadata Slave" style="shape=cylinder;whiteSpace=wrap;html=1;boundedLbl=1;backgroundOutline=1;" vertex="1" parent="1">
          <mxGeometry x="500" y="300" width="60" height="80" as="geometry"/>
        </mxCell>
        <mxCell id="gKgvuzPT2wpfFBeMITmC-13" value="Meta DB" style="text;html=1;align=center;verticalAlign=middle;resizable=0;points=[];autosize=1;" vertex="1" parent="1">
          <mxGeometry x="83" y="473" width="60" height="20" as="geometry"/>
        </mxCell>
        <mxCell id="gKgvuzPT2wpfFBeMITmC-16" value="- Relationships&lt;br&gt;" style="text;html=1;align=left;verticalAlign=middle;resizable=0;points=[];autosize=1;" vertex="1" parent="1">
          <mxGeometry x="120" y="493" width="90" height="20" as="geometry"/>
        </mxCell>
        <mxCell id="gKgvuzPT2wpfFBeMITmC-17" value="Person DB" style="text;html=1;align=center;verticalAlign=middle;resizable=0;points=[];autosize=1;" vertex="1" parent="1">
          <mxGeometry x="78" y="530" width="70" height="20" as="geometry"/>
        </mxCell>
        <mxCell id="gKgvuzPT2wpfFBeMITmC-18" value="- Profile/Image/Name etc" style="text;html=1;align=left;verticalAlign=middle;resizable=0;points=[];autosize=1;" vertex="1" parent="1">
          <mxGeometry x="120" y="550" width="150" height="20" as="geometry"/>
        </mxCell>
      </root>
    </mxGraphModel>
  </diagram>
</mxfile>
